<svg width="72" height="36" viewBox="0 0 72 36" fill="none" xmlns="http://www.w3.org/2000/svg">
<g clip-path="url(#clip0)">
<path d="M15.5664 22.3296H9.46342V28.2317H15.5664V22.3296Z" fill="white"/>
<path d="M15.5664 30.0979H9.46342V36.0001H15.5664V30.0979Z" fill="white"/>
<path d="M31.9241 22.3296H25.8211V28.2317H31.9241V22.3296Z" fill="white"/>
<path d="M31.9241 30.0979H25.8211V36.0001H31.9241V30.0979Z" fill="white"/>
<path d="M57.626 22.3296H51.523V28.2317H57.626V22.3296Z" fill="white"/>
<path d="M57.626 30.0979H51.523V36.0001H57.626V30.0979Z" fill="white"/>
<path d="M72.0108 22.3296H65.9079V28.2317H72.0108V22.3296Z" fill="white"/>
<path d="M72.0108 30.0979H65.9079V36.0001H72.0108V30.0979Z" fill="white"/>
<path d="M0.862979 0V5.2941H5.43751C-0.806397 10.5987 0.0174515 28.2213 0.0174515 28.2213H5.97951C5.93036 23.8556 6.36645 19.4974 7.2803 15.2219H18.1855V28.2213H23.4429V0H0.862979ZM9.13399 9.43506C9.72827 7.86875 10.6055 6.41694 11.7248 5.14732H18.2288V9.43506H9.13399Z" fill="white"/>
<path d="M25.8862 0C25.8862 17.2347 40.1734 28.2213 48.2059 28.2213V22.3296C40.1734 22.3296 31.4363 10.389 31.4363 5.16831H48.2059V0H25.8862Z" fill="white"/>
<path d="M50.6341 0V5.16832H59.1003V28.2213H64.6396V5.16832H72V0H50.6341Z" fill="white"/>
</g>
<defs>
<clipPath id="clip0">
<rect width="72" height="36" fill="white"/>
</clipPath>
</defs>
</svg>
