<svg width="48" height="48" viewBox="0 0 48 48" fill="none" xmlns="http://www.w3.org/2000/svg">
<path d="M21.6 6H26.4C27.0365 6 27.6469 6.25286 28.097 6.70294C28.5471 7.15303 28.7999 7.76348 28.7999 8.4V18L24 15.6L19.2 18V8.4C19.2 8.08483 19.262 7.77274 19.3826 7.48156C19.5033 7.19038 19.68 6.9258 19.9029 6.70294C20.1258 6.48008 20.3903 6.3033 20.6815 6.18269C20.9727 6.06208 21.2848 6 21.6 6V6Z" stroke="#FF4757" stroke-width="3" stroke-linecap="round" stroke-linejoin="round"/>
<path d="M24 28H14V34H24V28Z" stroke="#FF4757" stroke-width="3" stroke-linecap="round" stroke-linejoin="round"/>
<path d="M28.8 8H38C39.0609 8 40.0783 8.42143 40.8284 9.17157C41.5786 9.92172 42 10.9391 42 12V38C42 39.0609 41.5786 40.0783 40.8284 40.8284C40.0783 41.5786 39.0609 42 38 42H10C8.93913 42 7.92172 41.5786 7.17157 40.8284C6.42143 40.0783 6 39.0609 6 38V12C6 10.9391 6.42143 9.92172 7.17157 9.17157C7.92172 8.42143 8.93913 8 10 8H19.2" stroke="#FF4757" stroke-width="3" stroke-linecap="round" stroke-linejoin="round"/>
</svg>
