<svg width="49" height="48" viewBox="0 0 49 48" fill="none" xmlns="http://www.w3.org/2000/svg">
<path d="M18.5 30L24.8 29.222C25.2426 29.1677 25.6545 28.9671 25.97 28.652L41.232 13.4C42.0436 12.588 42.4995 11.487 42.4995 10.339C42.4995 9.19098 42.0436 8.08995 41.232 7.27798V7.27798C40.42 6.46642 39.319 6.01053 38.171 6.01053C37.023 6.01053 35.922 6.46642 35.11 7.27798L19.99 22.398C19.6838 22.7041 19.4852 23.1013 19.424 23.53L18.5 30Z" stroke="#FF4757" stroke-width="3" stroke-linecap="round" stroke-linejoin="round"/>
<path d="M26.5 8H14.5C12.3783 8 10.3434 8.84285 8.84315 10.3431C7.34285 11.8434 6.5 13.8783 6.5 16V34C6.5 36.1217 7.34285 38.1566 8.84315 39.6569C10.3434 41.1571 12.3783 42 14.5 42H32.5C34.6217 42 36.6566 41.1571 38.1569 39.6569C39.6571 38.1566 40.5 36.1217 40.5 34V22" stroke="#FF4757" stroke-width="3" stroke-linecap="round" stroke-linejoin="round"/>
</svg>
