<svg width="24" height="25" viewBox="0 0 24 25" fill="none" xmlns="http://www.w3.org/2000/svg">
<path d="M6 15.5V18.5C6 19.2956 6.31607 20.0587 6.87868 20.6213C7.44129 21.1839 8.20435 21.5 9 21.5H18C18.7956 21.5 19.5587 21.1839 20.1213 20.6213C20.6839 20.0587 21 19.2956 21 18.5V6.5C21 5.70435 20.6839 4.94129 20.1213 4.37868C19.5587 3.81607 18.7956 3.5 18 3.5H9C8.20435 3.5 7.44129 3.81607 6.87868 4.37868C6.31607 4.94129 6 5.70435 6 6.5V9.5" stroke="#323232" stroke-width="1.5" stroke-linecap="round" stroke-linejoin="round"/>
<path d="M12 15.5L15 12.5L12 9.5" stroke="#323232" stroke-width="1.5" stroke-linecap="round" stroke-linejoin="round"/>
<path d="M3 12.5H15" stroke="#323232" stroke-width="1.5" stroke-linecap="round" stroke-linejoin="round"/>
</svg>
